# xmcd
#
# Track frame offsets: 
#        150
#        19148
#        31509
#        53542
#        74384
#        88578
#        105036
#        121933
#        140813
#        160089
#        174862
#        205472
#        232537
#        248597
#
# Disc length: 3532 seconds
#
# Revision: 1
# Processed by: cddbd v1.5.2PL0 Copyright (c) Steve Scherf et al.
# Submitted via: ExactAudioCopy v1.0b3
#
DISCID=9e0dca0e
DTITLE=Various Artist - Ladies' Jazz Vol. 2
DYEAR=2011
DGENRE=Jazz
TTITLE0=Rokia Traore - Aimer
TTITLE1=Chiara Civello - L Train
TTITLE2=Sidsel Endresen - Blessed Instant
TTITLE3=Roberta Gambarini and Hank Jones - Lush Life
TTITLE4=Christina Bjordal - Twinkles
TTITLE5=Laura Fygi - Dream A Little Dream
TTITLE6=Randy Crawford and Joe Sample - Angel Of The Morning
TTITLE7=Jane Monheit and Sergio Mendes - So Many Stars
TTITLE8=Rebekka Bakken - Didn't I
TTITLE9=Lizz Wright - When I Close My Eyes
TTITLE10=Dee Dee Bridgewater - Long Time Ago
TTITLE11=Silje Nergaard - When Judy Falls
TTITLE12=Karrin Allyson - Something Worth Waiting For (Con Alma)
TTITLE13=Zap Mama - Go Boy
EXTD=YEAR: 2011
EXTT0=
EXTT1=
EXTT2=
EXTT3=
EXTT4=
EXTT5=
EXTT6=
EXTT7=
EXTT8=
EXTT9=
EXTT10=
EXTT11=
EXTT12=
EXTT13=
PLAYORDER=
